<?xml version="1.0" encoding="utf-8"?>
<!-- Generator: Adobe Illustrator 20.1.0, SVG Export Plug-In . SVG Version: 6.00 Build 0)  -->
<svg version="1.1" id="Warstwa_1" xmlns="http://www.w3.org/2000/svg" xmlns:xlink="http://www.w3.org/1999/xlink" x="0px" y="0px"
	 viewBox="0 0 53.9 53.9" style="enable-background:new 0 0 53.9 53.9;" xml:space="preserve">
<style type="text/css">
	.st0{fill:#787878;}
</style>
<path class="st0" d="M26.5,35c-2.8,0-3.8-3.2-4.9-5.1c-0.6-0.9-1.7-2.3-2.7-2.7v-0.1c-0.1,1.7-0.1,3.4-0.1,5c0,0.5-0.5,0.8-0.9,0.8
	c-0.3,0-0.7-0.1-0.7-0.5L17,27h-0.2c-0.3,0-0.8-0.2-0.8-0.6c0-0.5,0.5-0.7,0.9-0.7l0-9.6c0-0.6,0.7-1.1,1.3-1.1
	c0.5,0,0.7,0.5,0.7,0.9l-0.1,9.7c3.9-0.2,5.1-3.1,5.8-6.4c0.2-0.8,0.6-0.8,1.3-0.8c0.4,0,0.5,0.2,0.5,0.6c0,2.4-2.5,7.2-5.1,7.7
	c0.6,0.4,1.1,1,1.5,1.6c1.2,1.7,1.9,5.6,4.3,5.6c0.3,0,0.7-0.2,1-0.2c0.1,0,0.3,0.1,0.3,0.3C28.5,34.6,27,35,26.5,35z"/>
<path class="st0" d="M33.7,28.1c-0.2,0-0.4,0-0.6,0L33,34.5c0,0.5-0.4,0.8-0.9,0.8c-0.3,0-0.8-0.1-0.8-0.5l-0.1-13.2
	c0-0.5,0.8-1,1.3-1c0.5,0,0.7,0.5,0.7,0.9l-0.1,5.2c0.2,0,0.3,0,0.5,0c2,0,4.7-1.4,4.7-3.7c0-2.3-2.9-3.5-4.8-3.5
	c-1.7,0-4.5,1-4.5,3.1c0,1.3,1.4,1.2,1.4,1.6c0,0.3-0.6,1.6-1,1.6c-0.2,0-0.5-0.2-0.7-0.3c-1-0.5-1.6-1.5-1.6-2.6
	c0-2.7,3.2-4.4,6.3-4.4c3.3,0,6.6,1.8,6.6,4.6C40.2,26.2,36.5,28.1,33.7,28.1z"/>
<g>
	<path class="st0" d="M27.3,52c-14,0-25.3-11.4-25.3-25.3c0-14,11.4-25.3,25.3-25.3c14,0,25.3,11.4,25.3,25.3
		C52.6,40.7,41.2,52,27.3,52z M27.3,2.7c-13.2,0-24,10.8-24,24c0,13.2,10.8,24,24,24c13.2,0,24-10.8,24-24
		C51.3,13.5,40.5,2.7,27.3,2.7z"/>
</g>
<g>
	<path class="st0" d="M27.3,44.8c-10,0-18.1-8.1-18.1-18.1c0-3.2,0.9-6.4,2.5-9.1c0.2-0.3,0.6-0.4,0.9-0.2c0.3,0.2,0.4,0.6,0.2,0.9
		c-1.5,2.6-2.3,5.5-2.3,8.5c0,9.3,7.5,16.8,16.8,16.8c8.7,0,15.8-6.5,16.7-15.1c0-0.4,0.4-0.6,0.7-0.6c0.4,0,0.6,0.4,0.6,0.7
		C44.3,37.8,36.6,44.8,27.3,44.8z"/>
</g>
<g>
	<path class="st0" d="M38.4,13.9c-0.1,0-0.3,0-0.4-0.1c-3-2.5-6.8-3.8-10.7-3.8c-2.5,0-4.9,0.5-7.1,1.6c-0.3,0.1-0.7,0-0.9-0.3
		s0-0.7,0.3-0.9c2.4-1.1,5-1.7,7.6-1.7c4.2,0,8.3,1.5,11.5,4.1c0.3,0.2,0.3,0.6,0.1,0.9C38.7,13.8,38.6,13.9,38.4,13.9z"/>
</g>
</svg>
