<?xml version="1.0" encoding="utf-8"?>
<!-- Generator: Adobe Illustrator 20.1.0, SVG Export Plug-In . SVG Version: 6.00 Build 0)  -->
<svg version="1.1" id="Warstwa_1" xmlns="http://www.w3.org/2000/svg" xmlns:xlink="http://www.w3.org/1999/xlink" x="0px" y="0px"
	 viewBox="0 0 274 57" style="enable-background:new 0 0 274 57;" xml:space="preserve">
<style type="text/css">
	.st0{fill:#C2A470;}
	.st1{fill:#231F20;}
</style>
<path class="st0" d="M135.5,36.6c-2.8,0-3.8-3.2-4.9-5.1c-0.6-0.9-1.7-2.3-2.7-2.7v-0.1c-0.1,1.7-0.1,3.4-0.1,5
	c0,0.5-0.5,0.8-0.9,0.8c-0.3,0-0.7-0.1-0.7-0.5l-0.1-5.4h-0.2c-0.3,0-0.8-0.2-0.8-0.6c0-0.5,0.5-0.7,0.9-0.7l0-9.6
	c0-0.6,0.7-1.1,1.3-1.1c0.5,0,0.7,0.5,0.7,0.9l-0.1,9.7c3.9-0.2,5.1-3.1,5.8-6.4c0.2-0.8,0.6-0.8,1.3-0.8c0.4,0,0.5,0.2,0.5,0.6
	c0,2.4-2.5,7.2-5.1,7.7c0.6,0.4,1.1,1,1.5,1.6c1.2,1.7,1.9,5.6,4.3,5.6c0.3,0,0.7-0.2,1-0.2c0.1,0,0.3,0.1,0.3,0.3
	C137.5,36.2,136,36.6,135.5,36.6z"/>
<path class="st0" d="M142.7,29.7c-0.2,0-0.4,0-0.6,0l-0.1,6.4c0,0.5-0.4,0.8-0.9,0.8c-0.3,0-0.8-0.1-0.8-0.5l-0.1-13.2
	c0-0.5,0.8-1,1.3-1c0.5,0,0.7,0.5,0.7,0.9l-0.1,5.2c0.2,0,0.3,0,0.5,0c2,0,4.7-1.4,4.7-3.7c0-2.3-2.9-3.5-4.8-3.5
	c-1.7,0-4.5,1-4.5,3.1c0,1.3,1.4,1.2,1.4,1.6c0,0.3-0.6,1.6-1,1.6c-0.2,0-0.5-0.2-0.7-0.3c-1-0.5-1.6-1.5-1.6-2.6
	c0-2.7,3.2-4.4,6.3-4.4c3.3,0,6.6,1.8,6.6,4.6C149.3,27.8,145.5,29.7,142.7,29.7z"/>
<g>
	<path class="st0" d="M136.3,53.6c-14,0-25.3-11.4-25.3-25.3c0-14,11.4-25.3,25.3-25.3c14,0,25.3,11.4,25.3,25.3
		C161.6,42.3,150.3,53.6,136.3,53.6z M136.3,4.3c-13.2,0-24,10.8-24,24c0,13.2,10.8,24,24,24c13.2,0,24-10.8,24-24
		C160.3,15.1,149.5,4.3,136.3,4.3z"/>
</g>
<g>
	<path class="st0" d="M136.3,46.4c-10,0-18.1-8.1-18.1-18.1c0-3.2,0.9-6.4,2.5-9.1c0.2-0.3,0.6-0.4,0.9-0.2c0.3,0.2,0.4,0.6,0.2,0.9
		c-1.5,2.6-2.3,5.5-2.3,8.5c0,9.3,7.5,16.8,16.8,16.8c8.7,0,15.8-6.5,16.7-15.1c0-0.4,0.4-0.6,0.7-0.6c0.4,0,0.6,0.4,0.6,0.7
		C153.4,39.4,145.6,46.4,136.3,46.4z"/>
</g>
<g>
	<path class="st0" d="M147.4,15.5c-0.1,0-0.3,0-0.4-0.1c-3-2.5-6.8-3.8-10.7-3.8c-2.5,0-4.9,0.5-7.1,1.6c-0.3,0.1-0.7,0-0.9-0.3
		s0-0.7,0.3-0.9c2.4-1.1,5-1.7,7.6-1.7c4.2,0,8.3,1.5,11.5,4.1c0.3,0.2,0.3,0.6,0.1,0.9C147.8,15.4,147.6,15.5,147.4,15.5z"/>
</g>
<g>
	<path class="st1" d="M15.6,34.8h-1.4l-4.7-6.1l-1.9,1.8v4.4H6.4V23.1h1.2v6l6.4-6h1.5l-5.2,4.8L15.6,34.8z"/>
	<path class="st1" d="M30.1,23.1v7.6c0,1.5-0.3,2.4-1,3.1c-0.8,0.8-1.9,1.2-3.3,1.2c-1.4,0-2.5-0.4-3.3-1.2c-0.7-0.8-1-1.6-1-3.1
		v-7.6h1.2v7.7c0,1,0.2,1.7,0.6,2.2c0.6,0.7,1.5,1,2.5,1s2-0.4,2.5-1c0.4-0.5,0.6-1.2,0.6-2.2v-7.7H30.1z"/>
	<path class="st1" d="M45.4,26.5c-0.4-1.6-1.7-2.6-3.5-2.6c-2.5,0-4.1,2-4.1,5.2c0,3.1,1.6,5.1,4,5.1c2,0,3.4-1.3,3.8-3.5h1.1
		c-0.4,2.8-2.2,4.5-4.9,4.5c-3.2,0-5.2-2.3-5.2-6.1c0-3.8,2-6.1,5.3-6.1c2.4,0,4.2,1.4,4.7,3.6H45.4z"/>
	<path class="st1" d="M54.3,29.1v5.7h-1.2V23.1h1.2v5h6.4v-5h1.2v11.7h-1.2v-5.7H54.3z"/>
	<path class="st1" d="M76.6,34.8l-6.8-10.3c0.1,0.7,0.1,1.2,0.1,1.8l0,1.4v1.4v5.6h-1.1V23.1h1.2l6.8,10.3c-0.1-0.9-0.1-3.3-0.1-4.8
		v-5.4h1.1v11.7H76.6z"/>
	<path class="st1" d="M86.1,34.8h-1.2V23.1h1.2V34.8z"/>
	<path class="st1" d="M94.6,31.2l-1.4,3.7H92l4.5-11.7h1.2l4.6,11.7h-1.2l-1.4-3.7H94.6z M97.1,24.3l-2.2,5.9h4.4L97.1,24.3z"/>
</g>
<g>
	<path class="st1" d="M171.9,34.8h-1.2V23.1h4.5c1.3,0,2.1,0.2,2.7,0.8c0.7,0.6,1,1.4,1,2.5c0,1.1-0.3,2-1,2.5
		c-0.6,0.6-1.4,0.8-2.7,0.8h-3.3V34.8z M174.7,28.7c2.1,0,3-0.7,3-2.3c0-0.8-0.3-1.4-0.7-1.8c-0.5-0.4-1.1-0.5-2.3-0.5h-2.8v4.6
		H174.7z"/>
	<path class="st1" d="M195.5,29.1c0,3.6-2.2,6-5.4,6c-3.2,0-5.4-2.5-5.4-6.1c0-3.7,2.2-6.1,5.4-6.1
		C193.4,22.9,195.5,25.3,195.5,29.1z M186.9,25.4c-0.7,0.9-1.1,2.1-1.1,3.6c0,3.1,1.7,5.1,4.2,5.1c2.5,0,4.2-2,4.2-5.1
		c0-1.5-0.4-2.8-1.1-3.7c-0.7-0.9-1.9-1.5-3.2-1.5C188.8,23.9,187.7,24.4,186.9,25.4z"/>
	<path class="st1" d="M211.2,34.8h-1.4l-4.7-6.1l-1.9,1.8v4.4H202V23.1h1.2v6l6.4-6h1.5l-5.2,4.8L211.2,34.8z"/>
	<path class="st1" d="M226.7,29.1c0,3.6-2.2,6-5.4,6c-3.2,0-5.4-2.5-5.4-6.1c0-3.7,2.2-6.1,5.4-6.1
		C224.6,22.9,226.7,25.3,226.7,29.1z M218.1,25.4c-0.7,0.9-1.1,2.1-1.1,3.6c0,3.1,1.7,5.1,4.2,5.1c2.5,0,4.2-2,4.2-5.1
		c0-1.5-0.4-2.8-1.1-3.7c-0.7-0.9-1.9-1.5-3.2-1.5C220,23.9,218.9,24.4,218.1,25.4z"/>
	<path class="st1" d="M234.4,33.8h5.6v1h-6.8V23.1h1.2V33.8z"/>
	<path class="st1" d="M253.8,24.1h-6.7v4.2h6.1v0.9h-6.1v4.5h6.8v1h-8V23.1h7.8V24.1z"/>
	<path class="st1" d="M268.1,34.8l-6.8-10.3c0.1,0.7,0.1,1.2,0.1,1.8l0,1.4v1.4v5.6h-1.1V23.1h1.2l6.8,10.3
		c-0.1-0.9-0.1-3.3-0.1-4.8v-5.4h1.1v11.7H268.1z M265.3,20.1h1.4l-1.8,2.2h-0.8L265.3,20.1z"/>
</g>
</svg>
