<?xml version="1.0" encoding="utf-8"?>
<!-- Generator: Adobe Illustrator 20.1.0, SVG Export Plug-In . SVG Version: 6.00 Build 0)  -->
<svg version="1.1" id="Warstwa_1" xmlns="http://www.w3.org/2000/svg" xmlns:xlink="http://www.w3.org/1999/xlink" x="0px" y="0px"
	 viewBox="0 0 60 60" style="enable-background:new 0 0 60 60;" xml:space="preserve">
<style type="text/css">
	.st0{fill:#C2A470;}
</style>
<path class="st0" d="M29,38.1c-2.8,0-3.8-3.2-4.9-5.1c-0.6-0.9-1.7-2.3-2.7-2.7v-0.1c-0.1,1.7-0.1,3.4-0.1,5c0,0.5-0.5,0.8-0.9,0.8
	c-0.3,0-0.7-0.1-0.7-0.5l-0.1-5.4h-0.2c-0.3,0-0.8-0.2-0.8-0.6c0-0.5,0.5-0.7,0.9-0.7v-9.6c0-0.6,0.7-1.1,1.3-1.1
	c0.5,0,0.7,0.5,0.7,0.9l-0.1,9.7c3.9-0.2,5.1-3.1,5.8-6.4c0.2-0.8,0.6-0.8,1.3-0.8c0.4,0,0.5,0.2,0.5,0.6c0,2.4-2.5,7.2-5.1,7.7
	c0.6,0.4,1.1,1,1.5,1.6c1.2,1.7,1.9,5.6,4.3,5.6c0.3,0,0.7-0.2,1-0.2c0.1,0,0.3,0.1,0.3,0.3C31,37.7,29.5,38.1,29,38.1z"/>
<path class="st0" d="M36.2,31.2c-0.2,0-0.4,0-0.6,0l-0.1,6.4c0,0.5-0.4,0.8-0.9,0.8c-0.3,0-0.8-0.1-0.8-0.5l-0.1-13.2
	c0-0.5,0.8-1,1.3-1s0.7,0.5,0.7,0.9l-0.1,5.2c0.2,0,0.3,0,0.5,0c2,0,4.7-1.4,4.7-3.7s-2.9-3.5-4.8-3.5c-1.7,0-4.5,1-4.5,3.1
	c0,1.3,1.4,1.2,1.4,1.6c0,0.3-0.6,1.6-1,1.6c-0.2,0-0.5-0.2-0.7-0.3c-1-0.5-1.6-1.5-1.6-2.6c0-2.7,3.2-4.4,6.3-4.4
	c3.3,0,6.6,1.8,6.6,4.6C42.8,29.3,39,31.2,36.2,31.2z"/>
<g>
	<path class="st0" d="M29.8,55.1c-14,0-25.3-11.4-25.3-25.3c0-14,11.4-25.3,25.3-25.3c14,0,25.3,11.4,25.3,25.3
		C55.1,43.8,43.8,55.1,29.8,55.1z M29.8,5.8c-13.2,0-24,10.8-24,24s10.8,24,24,24s24-10.8,24-24S43,5.8,29.8,5.8z"/>
</g>
<g>
	<path class="st0" d="M29.8,47.9c-10,0-18.1-8.1-18.1-18.1c0-3.2,0.9-6.4,2.5-9.1c0.2-0.3,0.6-0.4,0.9-0.2c0.3,0.2,0.4,0.6,0.2,0.9
		C13.8,24,13,26.9,13,29.9c0,9.3,7.5,16.8,16.8,16.8c8.7,0,15.8-6.5,16.7-15.1c0-0.4,0.4-0.6,0.7-0.6c0.4,0,0.6,0.4,0.6,0.7
		C46.9,40.9,39.1,47.9,29.8,47.9z"/>
</g>
<g>
	<path class="st0" d="M40.9,17c-0.1,0-0.3,0-0.4-0.1c-3-2.5-6.8-3.8-10.7-3.8c-2.5,0-4.9,0.5-7.1,1.6c-0.3,0.1-0.7,0-0.9-0.3
		s0-0.7,0.3-0.9c2.4-1.1,5-1.7,7.6-1.7c4.2,0,8.3,1.5,11.5,4.1c0.3,0.2,0.3,0.6,0.1,0.9C41.3,16.9,41.1,17,40.9,17z"/>
</g>
</svg>
