<?xml version="1.0" encoding="utf-8"?>
<!-- Generator: Adobe Illustrator 20.1.0, SVG Export Plug-In . SVG Version: 6.00 Build 0)  -->
<svg version="1.1" id="Warstwa_1" xmlns="http://www.w3.org/2000/svg" xmlns:xlink="http://www.w3.org/1999/xlink" x="0px" y="0px"
	 viewBox="0 0 337.8 66.4" style="enable-background:new 0 0 337.8 66.4;" xml:space="preserve">
<style type="text/css">
	.st0{fill:none;stroke:#C2A470;stroke-width:1.324;stroke-linecap:round;stroke-miterlimit:10;}
	.st1{fill:#231F20;}
	.st2{fill:#C2A470;}
</style>
<circle class="st0" cx="149.2" cy="33.9" r="25.1"/>
<path class="st0" d="M157.9,49.4c-2.6,1.5-5.5,2.3-8.7,2.3c-7.4,0-13.7-4.5-16.4-10.9"/>
<g>
	<path class="st1" d="M17.2,40.6H16V29.7h-3.8v-1H21v1h-3.8V40.6z"/>
	<path class="st1" d="M27.1,36.8l-1.4,3.8h-1.2l4.6-11.9h1.3L35,40.6h-1.2l-1.5-3.8H27.1z M29.7,29.9l-2.2,6H32L29.7,29.9z"/>
	<path class="st1" d="M47.6,32c-0.1-1.7-1.1-2.6-3-2.6c-1.8,0-2.9,0.9-2.9,2.3c0,1.1,0.6,1.6,2,1.9l2.2,0.5c1.2,0.3,1.8,0.6,2.4,1
		c0.6,0.6,0.8,1.3,0.8,2.1c0,2.2-1.7,3.6-4.4,3.6c-1.6,0-2.9-0.5-3.7-1.6c-0.5-0.7-0.8-1.4-0.8-2.7h1.2c0,2.1,1.2,3.2,3.4,3.2
		c1.9,0,3.1-1,3.1-2.5c0-1.2-0.7-1.8-2.5-2.2l-2.1-0.5c-1.9-0.4-2.8-1.4-2.8-3c0-2,1.6-3.3,4.1-3.3c2.6,0,4.1,1.2,4.2,3.6H47.6z"/>
	<path class="st1" d="M59.3,40.6h-1.2V29.7h-3.8v-1h8.8v1h-3.8V40.6z"/>
	<path class="st1" d="M77,29.7h-6.8V34h6.2v0.9h-6.2v4.6h6.9v1h-8.1V28.6h8V29.7z"/>
	<path class="st1" d="M103.9,34.7c0,3.7-2.3,6.2-5.5,6.2c-3.3,0-5.5-2.5-5.5-6.2c0-3.7,2.2-6.2,5.5-6.2
		C101.7,28.4,103.9,30.8,103.9,34.7z M95.1,31c-0.7,0.9-1.1,2.2-1.1,3.7c0,3.1,1.7,5.2,4.3,5.2c2.6,0,4.3-2.1,4.3-5.2
		c0-1.6-0.4-2.8-1.1-3.7c-0.8-1-2-1.6-3.3-1.6C97.1,29.4,95.9,30,95.1,31z"/>
	<path class="st1" d="M118.1,29.7h-6.4v4.2h5.6v1h-5.6v5.7h-1.2V28.6h7.6V29.7z"/>
</g>
<g>
	<path class="st1" d="M193.2,34.5v6.1h-0.9v-2c-1.1,1.6-2.3,2.3-4.1,2.3c-3.3,0-5.4-2.5-5.4-6.2c0-3.8,2.2-6.3,5.6-6.3
		c2.6,0,4.4,1.4,4.8,3.8h-1.2c-0.4-1.8-1.7-2.8-3.6-2.8c-2.7,0-4.4,2-4.4,5.2c0,3.1,1.7,5.3,4.3,5.3c1.4,0,2.7-0.7,3.3-1.9
		c0.4-0.7,0.6-1.4,0.6-2.5h-4v-0.9H193.2z"/>
	<path class="st1" d="M208.2,29.7h-6.8V34h6.2v0.9h-6.2v4.6h6.9v1h-8.1V28.6h8V29.7z"/>
	<path class="st1" d="M222.7,40.6l-6.9-10.5c0.1,0.7,0.1,1.3,0.1,1.9l0,1.4v1.5v5.7h-1.1V28.6h1.2l6.9,10.4c-0.1-1-0.1-3.4-0.1-4.9
		v-5.5h1.1v11.9H222.7z"/>
	<path class="st1" d="M239.1,29.7h-6.8V34h6.2v0.9h-6.2v4.6h6.9v1h-8.1V28.6h8V29.7z"/>
	<path class="st1" d="M246.9,40.6h-1.2V28.6h5c1.4,0,2.1,0.2,2.8,0.7s1,1.3,1,2.4c0,1.4-0.6,2.3-1.9,2.9c1,0.4,1.4,1.2,1.5,2.6
		l0.1,1.6c0.1,0.9,0.2,1.2,0.7,1.7h-1.6c-0.2-0.4-0.3-0.8-0.3-1.4l-0.1-1.4c-0.2-2.1-0.7-2.7-2.3-2.7h-3.7V40.6z M250.5,34.2
		c1.1,0,1.7-0.2,2.1-0.6c0.4-0.4,0.7-1,0.7-1.7c0-0.7-0.2-1.3-0.7-1.7c-0.4-0.4-1-0.6-2.1-0.6h-3.6v4.6H250.5z"/>
	<path class="st1" d="M263.3,36.8l-1.4,3.8h-1.2l4.6-11.9h1.3l4.7,11.9H270l-1.5-3.8H263.3z M265.9,29.9l-2.2,6h4.5L265.9,29.9z"/>
	<path class="st1" d="M279.7,40.6h-1.2V29.7h-3.8v-1h8.8v1h-3.8V40.6z"/>
	<path class="st1" d="M290.7,40.6h-1.2V28.6h1.2V40.6z"/>
	<path class="st1" d="M308.4,34.7c0,3.7-2.3,6.2-5.5,6.2c-3.3,0-5.5-2.5-5.5-6.2c0-3.7,2.2-6.2,5.5-6.2
		C306.2,28.4,308.4,30.8,308.4,34.7z M299.6,31c-0.7,0.9-1.1,2.2-1.1,3.7c0,3.1,1.7,5.2,4.3,5.2c2.6,0,4.3-2.1,4.3-5.2
		c0-1.6-0.4-2.8-1.1-3.7c-0.8-1-2-1.6-3.3-1.6C301.6,29.4,300.4,30,299.6,31z"/>
	<path class="st1" d="M323,40.6l-6.9-10.5c0.1,0.7,0.1,1.3,0.1,1.9l0,1.4v1.5v5.7h-1.1V28.6h1.2l6.9,10.4c-0.1-1-0.1-3.4-0.1-4.9
		v-5.5h1.1v11.9H323z"/>
</g>
<g>
	<path class="st2" d="M148.9,42.4c-2.4,0-3.9-2.2-3.9-4.8c0-2.1,1.3-4.3,3.4-4.5c0.3,0,0.7,0,0.7,0.3c0,0.3-0.4,0.2-0.9,0.4
		c-1,0.4-1.4,1.7-1.4,2.9c0,2,0.9,4.4,2.4,4.4c1.2,0,1.6-1.3,1.6-2.5c0-1.2-0.5-3.6-2.2-3.9c-0.1,0-0.2,0-0.2-0.1
		c0-0.4,0.8-0.6,1.1-0.6c1.9,0,3.1,1.9,3.1,3.6C152.6,39.7,151.3,42.4,148.9,42.4z"/>
	<path class="st2" d="M163.3,40.1c-0.3,0-1.1-0.2-1.5-0.3c0,0.9-0.1,3.3-0.4,4.1c-0.5,1.3-1.5,2.4-3,2.4c-1.7,0-2.4-1.3-2.4-2.8
		c0-2.2,1.5-4,3.6-4.5c0-0.7,0.1-1.3,0.1-2c-0.8,0.9-1.9,1.7-3.2,1.7c-2.3,0-3.1-2.4-3.1-4.3c0-1.1,0.2-2.2,0.6-3.2
		c0.8-2.2,2.9-5,5.5-5c1.4,0,2.1,1,2.1,2.3c0,0.4-0.3,2.4-0.9,2.4c-0.3,0-0.5-0.5-0.6-0.7c0.1-0.4,0.2-0.8,0.2-1.2
		c0-0.6-0.3-1.4-1-1.4c-1.7,0-3.2,2.6-3.6,4c-0.2,0.7-0.3,1.4-0.3,2.1c0,1.3,0.4,2.7,2,2.7c0.8,0,1.6-0.4,2.3-0.9c0-0.3,0-0.5,0-0.8
		c0-0.5,0.2-0.9,0.8-0.9c0.5,0,1.4,0.5,1.4,1.1c0,1.3-0.1,2.6-0.1,3.9c0.5,0,2,0.2,2,0.9C163.8,40,163.6,40.1,163.3,40.1z
		 M157.2,43.6c0,0.6,0.2,1.5,0.9,1.5c1.7,0,1.5-3.9,1.5-5C158.1,40.6,157.2,42.1,157.2,43.6z"/>
</g>
<g>
	<path class="st2" d="M140.4,31.9c-0.1,1.3-0.2,4.7-0.2,6c0,1.6,0.2,2.8,1.8,2.8c1.6,0,1.8-2.1,2.3-2.1c0.2,0,0.2,0.2,0.2,0.4
		c0,0.2-0.1,0.5-0.2,0.7c-0.6,1.6-1.6,2.4-3.1,2.4c-1.8,0-2.8-1.2-2.8-3.3c0-1.6,0.2-5.2,0.4-6.8l0.2-1.7c0.1-0.6,0.1-1.2,0.1-1.8
		c0-1.4-0.5-0.7-0.5-1.5c0-0.7,0.5-1,1-1c1,0,1.1,0.9,1.1,1.9c0,0.8-0.1,1.6-0.2,2.4L140.4,31.9z"/>
</g>
<g>
	<path class="st2" d="M140.9,27.5c-1.3-0.3-2.6-0.5-3.7-0.5c-2.8,0-4.9,1.6-4.9,4.3c0,1.7,0.9,3.1,2.6,3.2l0,0.4
		c-0.2,0.1-0.5,0.1-0.8,0.1c-1.7,0-3.1-1.3-3.1-3.3c0-3.1,3.4-5.9,7.6-5.9c2.2,0,5.5,0.8,7.3,0.8c0.7,0,1.2-0.1,1.6-0.6l0.4,0.2
		c-0.2,1.3-0.9,2.1-2.6,2.1c-0.9,0-2.1-0.2-3.3-0.5L140.9,27.5z"/>
</g>
<path class="st0" d="M136.6,21.4c3.2-3.2,7.6-5.2,12.5-5.2c9.8,0,17.8,8,17.8,17.8"/>
</svg>
