<?xml version="1.0" encoding="utf-8"?>
<!-- Generator: Adobe Illustrator 20.1.0, SVG Export Plug-In . SVG Version: 6.00 Build 0)  -->
<svg version="1.1" id="Warstwa_1" xmlns="http://www.w3.org/2000/svg" xmlns:xlink="http://www.w3.org/1999/xlink" x="0px" y="0px"
	 viewBox="0 0 60 60" style="enable-background:new 0 0 60 60;" xml:space="preserve">
<style type="text/css">
	.st0{fill:none;stroke:#C2A470;stroke-width:1.324;stroke-linecap:round;stroke-miterlimit:10;}
	.st1{fill:#C2A470;}
</style>
<circle class="st0" cx="29.6" cy="29.4" r="25.1"/>
<path class="st0" d="M38.3,44.9c-2.6,1.5-5.5,2.3-8.7,2.3c-7.4,0-13.7-4.5-16.4-10.9"/>
<g>
	<path class="st1" d="M29.3,37.9c-2.4,0-3.9-2.2-3.9-4.8c0-2.1,1.3-4.3,3.4-4.5c0.3,0,0.7,0,0.7,0.3s-0.4,0.2-0.9,0.4
		c-1,0.4-1.4,1.7-1.4,2.9c0,2,0.9,4.4,2.4,4.4c1.2,0,1.6-1.3,1.6-2.5s-0.5-3.6-2.2-3.9c-0.1,0-0.2,0-0.2-0.1c0-0.4,0.8-0.6,1.1-0.6
		c1.9,0,3.1,1.9,3.1,3.6C33,35.2,31.7,37.9,29.3,37.9z"/>
	<path class="st1" d="M43.7,35.6c-0.3,0-1.1-0.2-1.5-0.3c0,0.9-0.1,3.3-0.4,4.1c-0.5,1.3-1.5,2.4-3,2.4c-1.7,0-2.4-1.3-2.4-2.8
		c0-2.2,1.5-4,3.6-4.5c0-0.7,0.1-1.3,0.1-2c-0.8,0.9-1.9,1.7-3.2,1.7c-2.3,0-3.1-2.4-3.1-4.3c0-1.1,0.2-2.2,0.6-3.2
		c0.8-2.2,2.9-5,5.5-5c1.4,0,2.1,1,2.1,2.3c0,0.4-0.3,2.4-0.9,2.4c-0.3,0-0.5-0.5-0.6-0.7c0.1-0.4,0.2-0.8,0.2-1.2
		c0-0.6-0.3-1.4-1-1.4c-1.7,0-3.2,2.6-3.6,4c-0.2,0.7-0.3,1.4-0.3,2.1c0,1.3,0.4,2.7,2,2.7c0.8,0,1.6-0.4,2.3-0.9c0-0.3,0-0.5,0-0.8
		c0-0.5,0.2-0.9,0.8-0.9c0.5,0,1.4,0.5,1.4,1.1c0,1.3-0.1,2.6-0.1,3.9c0.5,0,2,0.2,2,0.9C44.2,35.5,44,35.6,43.7,35.6z M37.6,39.1
		c0,0.6,0.2,1.5,0.9,1.5c1.7,0,1.5-3.9,1.5-5C38.5,36.1,37.6,37.6,37.6,39.1z"/>
</g>
<g>
	<path class="st1" d="M20.8,27.4c-0.1,1.3-0.2,4.7-0.2,6c0,1.6,0.2,2.8,1.8,2.8s1.8-2.1,2.3-2.1c0.2,0,0.2,0.2,0.2,0.4
		s-0.1,0.5-0.2,0.7c-0.6,1.6-1.6,2.4-3.1,2.4c-1.8,0-2.8-1.2-2.8-3.3c0-1.6,0.2-5.2,0.4-6.8l0.2-1.7c0.1-0.6,0.1-1.2,0.1-1.8
		c0-1.4-0.5-0.7-0.5-1.5c0-0.7,0.5-1,1-1c1,0,1.1,0.9,1.1,1.9c0,0.8-0.1,1.6-0.2,2.4L20.8,27.4z"/>
</g>
<g>
	<path class="st1" d="M21.3,23c-1.3-0.3-2.6-0.5-3.7-0.5c-2.8,0-4.9,1.6-4.9,4.3c0,1.7,0.9,3.1,2.6,3.2v0.4
		c-0.2,0.1-0.5,0.1-0.8,0.1c-1.7,0-3.1-1.3-3.1-3.3c0-3.1,3.4-5.9,7.6-5.9c2.2,0,5.5,0.8,7.3,0.8c0.7,0,1.2-0.1,1.6-0.6l0.4,0.2
		c-0.2,1.3-0.9,2.1-2.6,2.1c-0.9,0-2.1-0.2-3.3-0.5L21.3,23z"/>
</g>
<path class="st0" d="M17,16.9c3.2-3.2,7.6-5.2,12.5-5.2c9.8,0,17.8,8,17.8,17.8"/>
</svg>
