<?xml version="1.0" encoding="utf-8"?>
<!-- Generator: Adobe Illustrator 16.0.3, SVG Export Plug-In . SVG Version: 6.00 Build 0)  -->
<!DOCTYPE svg PUBLIC "-//W3C//DTD SVG 1.1//EN" "http://www.w3.org/Graphics/SVG/1.1/DTD/svg11.dtd">
<svg version="1.1" id="svg2" xmlns="http://www.w3.org/2000/svg" xmlns:xlink="http://www.w3.org/1999/xlink" x="0px" y="0px"
	 width="500px" height="386.58px" viewBox="0 0 500 386.58" enable-background="new 0 0 500 386.58" xml:space="preserve">
<path id="path6192" fill="#000000" d="M20.012,322.39l17.932,41.432l18.002-41.432l10.014,52.166h-5.631l-6.348-33.381h-0.129
	l-15.908,35.407l-15.833-35.407h-0.133l-6.352,33.381H10L20.012,322.39"/>
<path id="path6194" fill="#000000" d="M76.3,325.204h25.594v5.104H81.797v14.66h19.504v5.108H81.797v19.37h20.097v5.108H76.3
	V325.204"/>
<path id="path6196" fill="#000000" d="M124.796,369.447c6.024,0,11.065-0.851,15.581-5.104c4.055-3.797,6.148-8.968,6.148-14.465
	c0-5.631-2.16-11.058-6.414-14.789c-4.515-3.992-9.486-4.78-15.315-4.78h-3.992v39.139H124.796z M115.305,325.204h9.296
	c7.396,0,13.416,0.983,19.241,5.954c5.626,4.843,8.181,11.456,8.181,18.786c0,7.201-2.616,13.549-8.052,18.392
	c-5.888,5.236-11.779,6.22-19.503,6.22h-9.163V325.204"/>
<path id="path6198" fill="#000000" d="M163.872,374.556h5.499v-49.347h-5.499V374.556z"/>
<path id="path6200" fill="#000000" d="M201.506,335.673l-8.445,19.769h16.692L201.506,335.673z M190.834,360.546l-5.953,14.01
	h-6.024l22.778-51.706l22.189,51.706h-6.091l-5.82-14.01H190.834"/>
<path id="path6202" fill="#000000" d="M303.342,349.749c0.133,6.676-0.589,12.173-5.104,17.409
	c-4.515,5.236-11.389,8.247-18.263,8.247c-13.873,0-25.391-11.526-25.391-25.395c0-14.139,11.518-25.656,25.722-25.656
	c8.637,0,15.639,3.86,20.876,10.668l-3.993,3.731c-4.117-5.825-9.686-9.296-16.949-9.296c-11.261,0-20.158,9.49-20.158,20.619
	c0,5.236,2.09,10.207,5.759,13.938c3.6,3.599,8.836,6.281,14.006,6.281c8.574,0,17.604-6.281,17.604-15.444h-14.66v-5.104H303.342"
	/>
<path id="path6204" fill="#000000" d="M320.684,348.05h1.704c6.215,0,12.5-1.182,12.5-8.84c0-8.113-5.958-8.901-12.57-8.901h-1.634
	V348.05z M320.684,374.556h-5.498v-49.352h7.132c9.365,0,18.068,2.488,18.068,13.616c0,7.587-4.781,12.96-12.372,13.611
	l15.709,22.124h-6.741l-14.922-21.664h-1.376V374.556"/>
<path id="path6206" fill="#000000" d="M357.729,349.878c0,11.128,9.034,20.419,20.22,20.419c11.199,0,20.225-9.291,20.225-20.419
	c0-11.194-8.897-20.42-20.225-20.42C366.631,329.458,357.729,338.684,357.729,349.878z M403.672,349.944
	c0,14.204-11.646,25.461-25.723,25.461c-14.067,0-25.722-11.257-25.722-25.461c0-14.134,11.654-25.59,25.722-25.59
	C392.025,324.354,403.672,335.811,403.672,349.944"/>
<path id="path6208" fill="#000000" d="M420.558,354.592c0,3.665-0.129,7.853,2.16,10.995c2.16,3.01,6.352,4.71,9.946,4.71
	c3.532,0,7.396-1.634,9.693-4.386c2.616-3.14,2.417-7.459,2.417-11.319v-29.388h5.498v30.893c0,5.369-0.39,9.623-4.32,13.678
	c-3.4,3.67-8.309,5.631-13.288,5.631c-4.644,0-9.424-1.771-12.762-5.042c-4.316-4.125-4.843-8.641-4.843-14.267v-30.893h5.498
	V354.592"/>
<path id="path6210" fill="#000000" d="M469.586,347.851h3.66c6.091,0,11.257-1.833,11.257-8.902c0-8.047-6.48-8.64-12.895-8.64
	h-2.022V347.851z M469.586,374.556h-5.502v-49.352h8.113c4.258,0,8.645,0.133,12.239,2.617c3.665,2.554,5.563,6.873,5.563,11.256
	c0,3.992-1.637,8.052-4.709,10.605c-3.342,2.749-7.596,3.275-11.717,3.275h-3.988V374.556"/>
<path id="path6212" fill="#0054A6" d="M114.061,275.033h265.036V9.998H114.061V275.033z"/>
<path id="path6214" fill="#FFFFFF" d="M214.777,28.551h145.771v145.771L214.777,28.551"/>
<path id="path6216" fill="#FFFFFF" d="M146.625,243.411h1.758c4.067,0,10.938,0.203,10.938-5.613c0-6.381-6.804-5.751-11.29-5.751
	h-1.405V243.411z M146.625,221.807h1.547c3.648,0,7.434-0.626,7.434-5.112c0-4.839-4.283-5.125-7.994-5.125h-0.986V221.807z
	 M132.881,253.926v-52.87h19.636c9.398,0,15.709,3.64,15.709,13.74c0,4.771-1.542,8.627-5.821,10.8v0.142
	c7.575,0.982,10.801,6.103,10.801,13.466c0,11.078-9.466,14.723-19.146,14.723H132.881"/>
<path id="path6218" fill="#FFFFFF" d="M201.465,217.396h-0.137l-5.681,16.824h11.427L201.465,217.396z M191.858,244.742
	l-3.645,9.184h-14.586l20.337-52.87h15.004l19.918,52.87h-14.66l-3.438-9.184H191.858"/>
<path id="path6220" fill="#FFFFFF" d="M275.724,201.056v29.73c0,6.8-0.282,13.533-5.539,18.654
	c-4.42,4.349-11.364,5.887-17.534,5.887c-6.169,0-13.113-1.538-17.529-5.887c-5.261-5.121-5.543-11.854-5.543-18.654v-29.73h13.748
	v27.836c0,6.87,0.489,14.379,9.324,14.379c8.836,0,9.329-7.509,9.329-14.379v-27.836H275.724"/>
<path id="path6222" fill="#FFFFFF" d="M297.603,212.697v8.831h15.493v11.643h-15.493v9.113h16.335v11.642h-30.084v-52.87h30.084
	v11.642H297.603"/>
<path id="path6232" fill="#FFFFFF" d="M335.61,224.755h1.331c4.49,0,9.539-0.838,9.539-6.593c0-5.751-5.049-6.593-9.539-6.593
	h-1.331V224.755z M365.831,253.926h-17.107l-12.977-20.336h-0.137v20.336h-13.744v-52.87h20.548
	c10.447,0,18.371,4.975,18.371,16.265c0,7.297-4.067,13.607-11.572,14.938L365.831,253.926"/>
</svg>
