<?xml version="1.0" encoding="utf-8"?>
<!-- Generator: Adobe Illustrator 20.1.0, SVG Export Plug-In . SVG Version: 6.00 Build 0)  -->
<svg version="1.1" id="Warstwa_1" xmlns="http://www.w3.org/2000/svg" xmlns:xlink="http://www.w3.org/1999/xlink" x="0px" y="0px"
	 viewBox="0 0 145 45" style="enable-background:new 0 0 145 45;" xml:space="preserve">
<style type="text/css">
	.st0{fill:#FFFFFF;}
	.st1{fill:#33D5AD;}
</style>
<g>
	<path class="st0" d="M53.8,16.2c3.6,0,6.1,2.6,6.1,6.1s-2.5,6.1-6.1,6.1c-3.7,0-6.1-2.6-6.1-6.1S50.2,16.2,53.8,16.2z M53.8,18
		c-2.5,0-4.1,1.8-4.1,4.3c0,2.5,1.6,4.3,4.1,4.3c2.5,0,4-1.9,4-4.3C57.9,19.8,56.3,18,53.8,18z"/>
	<path class="st0" d="M71.2,23.8H69v4.4h-2V16.5h5.3c2.5,0,3.9,1.6,3.9,3.6c0,2.1-1.3,3.3-3,3.5l3.2,4.5H74L71.2,23.8z M72,18.2H69
		V22H72c1.4,0,2.1-0.8,2.1-1.9C74.1,19,73.4,18.2,72,18.2z"/>
	<path class="st0" d="M83.4,16.5h2v11.7h-2V16.5z"/>
	<path class="st0" d="M98.7,16.2c2.1,0,3.7,1,4.7,2.2l-1.6,1c-0.7-0.9-1.8-1.5-3.2-1.5c-2.4,0-4.2,1.8-4.2,4.3
		c0,2.5,1.8,4.3,4.2,4.3c1.3,0,2.3-0.6,2.9-1.1v-2h-0.9v-1.7h2.9v4.4c-1.2,1.3-2.9,2.1-4.9,2.1c-3.5,0-6.3-2.5-6.3-6.1
		C92.4,18.7,95.2,16.2,98.7,16.2z"/>
	<path class="st0" d="M110.9,16.5h9.7v1.7h-7.8v3.1h6.2V23h-6.2v3.3h7.8v1.7h-9.7V16.5z"/>
	<path class="st0" d="M128.4,19.4v8.7h-2V16.5h2.1l6.4,8.5v-8.5h2v11.7h-2L128.4,19.4z"/>
</g>
<g>
	<path class="st0" d="M22.8,37c-8.1,0-14.7-6.6-14.7-14.7S14.7,7.6,22.8,7.6c6.2,0,11.7,3.9,13.8,9.7l-2.3,0.8
		C32.7,13.2,28,10,22.8,10c-6.8,0-12.3,5.5-12.3,12.3S16,34.6,22.8,34.6c6.4,0,11.7-4.9,12.3-11.1h-2.5v-2.4h4.9v1.2
		C37.6,30.4,31,37,22.8,37z"/>
</g>
<g>
	<rect x="20.8" y="21.1" class="st1" width="8.9" height="2.4"/>
</g>
</svg>
