<?xml version="1.0" encoding="utf-8"?>
<!-- Generator: Adobe Illustrator 20.1.0, SVG Export Plug-In . SVG Version: 6.00 Build 0)  -->
<svg version="1.1" id="Warstwa_1" xmlns="http://www.w3.org/2000/svg" xmlns:xlink="http://www.w3.org/1999/xlink" x="0px" y="0px"
	 viewBox="0 0 42.5 42.5" style="enable-background:new 0 0 42.5 42.5;" xml:space="preserve">
<style type="text/css">
	.st0{fill:#E6E6E6;}
</style>
<g>
	<path class="st0" d="M6,30.3c3.5-2.3,6.7-6.7,7.1-10.2c-0.2,0.1-1,0.2-1.5,0.2c-3.1,0-5.3-2.3-5.3-5.6c0-3.2,2.5-5.9,5.8-5.9
		c3.6,0,6.9,3,6.9,8.3c0,6.7-3.9,12.9-9,16.5L6,30.3z M23.6,30.3c3.5-2.3,6.6-6.7,7-10.2c-0.2,0.1-1,0.2-1.4,0.2
		c-3.1,0-5.4-2.3-5.4-5.6c0-3.2,2.6-5.9,5.8-5.9c3.6,0,6.9,3,6.9,8.3c0,6.7-3.9,12.9-8.9,16.5L23.6,30.3z"/>
</g>
</svg>
